<svg width="28" height="28" viewBox="0 0 28 28" fill="none" xmlns="http://www.w3.org/2000/svg">
<path d="M26.0012 14.1361C26.0012 13.1385 25.9186 12.4105 25.7398 11.6556H14.1155V16.1583H20.9387C20.8012 17.2773 20.0584 18.9625 18.4075 20.0949L18.3844 20.2456L22.0598 23.036L22.3144 23.0609C24.653 20.9443 26.0012 17.83 26.0012 14.1361Z" fill="#4285F4"/>
<path d="M14.1147 26C17.4575 26 20.2639 24.9214 22.3136 23.061L18.4068 20.095C17.3613 20.8095 15.9581 21.3083 14.1147 21.3083C10.8407 21.3083 8.0619 19.1918 7.07134 16.2663L6.92614 16.2784L3.10442 19.1769L3.05444 19.3131C5.09039 23.2766 9.2724 26 14.1147 26Z" fill="#34A853"/>
<path d="M7.07206 16.2663C6.81069 15.5114 6.65943 14.7024 6.65943 13.8666C6.65943 13.0307 6.8107 12.2219 7.05831 11.4669L7.05139 11.3061L3.18177 8.36105L3.05516 8.42006C2.21604 10.0648 1.73456 11.9118 1.73456 13.8666C1.73456 15.8214 2.21604 17.6683 3.05516 19.3131L7.07206 16.2663Z" fill="#FBBC05"/>
<path d="M14.1148 6.42486C16.4396 6.42486 18.0079 7.409 18.9021 8.23143L22.3963 4.888C20.2503 2.93319 17.4576 1.73333 14.1148 1.73333C9.27243 1.73333 5.0904 4.45657 3.05444 8.42009L7.05761 11.467C8.06193 8.54148 10.8408 6.42486 14.1148 6.42486Z" fill="#EB4335"/>
</svg>
